<svg xmlns="http://www.w3.org/2000/svg" version="1.1" xmlns:xlink="http://www.w3.org/1999/xlink" xmlns:svgjs="http://svgjs.dev/svgjs" width="1080" height="1080"><svg xmlns="http://www.w3.org/2000/svg" xmlns:serif="http://www.serif.com/" version="1.1" viewBox="0 0 1080 1080">
  <!-- Generator: Adobe Illustrator 29.1.0, SVG Export Plug-In . SVG Version: 2.1.0 Build 142)  -->
  <defs>
    <style>
      .st0, .st1 {
        stroke: #ea0000;
        stroke-miterlimit: 10;
        stroke-width: 2px;
      }

      .st0, .st2 {
        fill: #fff;
      }

      .st3 {
        fill: #a52b00;
      }

      .st1 {
        fill: #ea0000;
      }

      .st4 {
        fill: #7c6147;
      }

      .st5 {
        fill: #f74c00;
      }
    </style>
  </defs>
  <g id="SvgjsG1044">
    <path class="st3" d="M580.8,509.2c-97.8,0-186.2,11.8-252.8,30.9v-4.3c-66.6,21.4-109,51.2-109,84.1s1.1,10.3,3.2,15.3l-6.8,12.2s-5.5,7.1,4.2,22.2c8.5,13.3,51.3,65.2,73.9,92.4,9.7,14,16.3,22.5,16.9,21.7.9-1.3-6-27.5-25.3-57.4-9-16-19.9-37.3-26.4-53,18,11.4,42,21.7,69.3,30.6h0c66.6,19,155,30.8,252.8,30.8s212.4-15.4,279.8-39.7v-146.2c-67.4-24.3-167.9-39.7-279.8-39.7h0Z"></path>
    <path class="st3" d="M961.2,644.8l-11.5-23.8c0-.9.1-1.8.1-2.7,0-26.9-28-51.7-75.1-71.6v143.2c22-9.3,39.8-19.6,52.6-30.8-3.8,15.1-16.6,45.6-26.8,67.1-16.8,30.7-22.9,57.4-22.1,58.8.5.8,6.2-8,14.7-22.4,19.7-28.1,57-81.6,64.5-95.3,8.4-15.5,3.7-22.6,3.7-22.6h0Z"></path>
    <path class="st5" d="M1027.8,671.6c-10,18.6-64.4,95.1-93.2,135.2-11.7,19.8-19.9,32.3-21.1,31.6-1.9-1.1,1.4-33.8,23.9-75.6,16.5-36.9,36.7-92.5,28.9-97,0,0-2.1-1.8-6-4.2-9-5.4-27.8-13.7-53.7-9-.8.4-1.5.7-2.2,1.1-9.8,4.8-19.7,9.2-29.5,13.4-4.7,2-9.4,3.9-14.1,5.8-5.3,2.1-10.6,4.2-16,6.1-31,11.4-61.9,20.2-92.6,26.8-2.2.5-4.5,1-6.8,1.4-44.4,9.1-88,13.7-130,15-5.5.2-11.1.3-16.6.3-206.4,2.2-368.8-72.7-368.8-72.7-6.3,2.8-11.3,6.1-15.2,9.1-6.4,4.9-9.7,9-9.7,9-7.3,6.2,23.8,60.4,47.7,95.6,31.1,39.2,40.4,72.7,38.6,74.2-1.1,1-11.9-10.4-27.7-28.8-37.3-36.2-108.1-105.3-121.8-122.7-15.6-19.8-4.9-28.2-4.9-28.2l40.4-42.9,28.6-30.4,1-1.1c.2-.6.4-1.3.6-1.9l-24.8-35.9c-2.5-3.6-3-8.4-1.4-12.5,1.6-4.2,5.2-7.1,9.5-7.8l41.8-7.1c1.6-3.3,3.3-6.6,5-9.8l-17.6-40.3c-1.8-4.1-1.4-8.9,1-12.6,2.4-3.7,6.5-5.9,10.8-5.8l42.5,1.5c2.2-2.9,4.4-5.7,6.7-8.5l-9.8-43.2c-1-4.4.3-9,3.3-12.1,3-3.2,7.4-4.5,11.7-3.5l41.4,10.2c2.7-2.4,5.4-4.7,8.1-7l-1.5-44.3c-.2-4.5,1.9-8.8,5.5-11.2,3.6-2.5,8.1-2.9,12.1-1l38.6,18.4c3.1-1.8,6.2-3.6,9.4-5.3l6.8-43.7c.7-4.4,3.5-8.2,7.5-9.9,4-1.7,8.5-1.2,12,1.5l34.4,25.8c3.4-1.1,6.8-2.2,10.2-3.2l14.8-41.4c1.5-4.2,5-7.3,9.2-8.2,4.2-.9,8.6.6,11.5,3.9l29,32.4c3.5-.4,7-.8,10.5-1.1l22.4-37.7c2.2-3.8,6.3-6.1,10.6-6.1s8.3,2.3,10.6,6.1l22.4,37.7c3.5.3,7,.7,10.5,1.1l29-32.4c2.9-3.3,7.3-4.7,11.5-3.9,4.2.9,7.7,4,9.2,8.2l14.8,41.4c3.5,1,6.9,2.1,10.2,3.2l34.4-25.8c3.5-2.6,8-3.2,12-1.5,4,1.7,6.8,5.5,7.5,9.9l6.8,43.7c3.2,1.7,6.3,3.5,9.4,5.3l38.6-18.4c3.9-1.9,8.5-1.5,12.1,1,3.6,2.5,5.7,6.8,5.5,11.2l-1.5,44.3c2.8,2.3,5.5,4.6,8.1,7l41.4-10.2c4.2-1,8.6.3,11.6,3.5,3,3.2,4.3,7.8,3.3,12.1l-9.8,43.2c2.3,2.8,4.5,5.6,6.7,8.5l42.5-1.5c4.3-.2,8.4,2,10.8,5.8,2.4,3.7,2.8,8.5,1,12.6l-17.6,40.3c1.7,3.2,3.4,6.5,5,9.8l41.9,7.1c4.2.7,7.8,3.7,9.5,7.8,1.6,4.2,1.1,8.9-1.4,12.5l-24.8,35.9c.7,2.5,1.4,4.9,2.2,7.4l75.4,55.5s11.3,5.9,0,27Z"></path>
    <path d="M701.8,747.2c1.3-1.1,2-1.8,2-1.8l-114.9-10.7c93.8-123.7,168.9-23.9,176.9-12.9v25.4h-64Z"></path>
    <g>
      <path class="st5" d="M205.9,584.8l-28.6,30.4c-67.2-49-70.3-84.8-70.3-84.8-143.6-104.5-20.9-163.5-20.9-163.5-.6,24,4.1,44.2,10.3,60.3l-14.5,30.2c-2.3,4.8-.3,10.5,4.5,12.8l3.5,1.7c4.8,2.3,10.5.3,12.8-4.5l6.8-14.2c7.6,12,14.2,18.3,14.2,18.3l1.5-51.1,1.7-57,.3-11.7c1.3.9,2.6,1.9,3.9,2.8,6.8,5,13,10,18.5,14.9,97.1,87.1-.6,164.8-.6,164.8,7.5,18.6,32.3,36.6,56.6,50.5Z"></path>
      <path class="st5" d="M96.5,427.2c4.1,10.5,8.8,19.2,13.2,26l-6.8,14.2c-2.3,4.8-8,6.8-12.8,4.5l-3.5-1.7c-4.8-2.3-6.8-8-4.5-12.8l14.5-30.2Z"></path>
      <path class="st5" d="M260.2,610.9l-19.2,43.2c-7.9-4.2-15.4-8.3-22.4-12.3-15.9-9.2-29.6-18.1-41.3-26.7l28.6-30.4c7.2,4.1,14.3,7.8,20.9,11.1,18.7,9.3,33.4,15,33.4,15Z"></path>
    </g>
    <path d="M645.5,560.3s35.1-38.4,70.2,0c0,0,27.6,51.2,0,76.8,0,0-45.1,35.9-70.2,0,0,0-30.1-28.2,0-76.8h0Z"></path>
    <path class="st2" d="M686.1,574.5c0,15-8.8,27.1-19.7,27.1s-19.7-12.1-19.7-27.1,8.8-27.1,19.7-27.1,19.7,12.1,19.7,27.1h0Z"></path>
    <path d="M488.9,549.8s60.2-26.6,76.6,32.8c0,0,17.2,69.3-49.4,73.2,0,0-85-16.4-27.2-106.1h0Z"></path>
    <path class="st2" d="M519.2,575.5c0,15.4-9.1,27.9-20.3,27.9s-20.3-12.5-20.3-27.9,9.1-27.9,20.3-27.9,20.3,12.5,20.3,27.9h0Z"></path>
    <path class="st5" d="M877.9,625.4s-12.6,50-90.7,102.6l-21.9,5.1s-70.9-129.3-171.3,16.4c0,0,31.3-18.2,115.2,4,0,0-38.6,59.1-116.4,57.3,0,0,74.5,89.4,187.9-39.7,0,0,119.9-46.4,129.6-145.7h-32.4Z"></path>
  </g>
  <g id="SvgjsG1043">
    <path class="st4" d="M96.5,427.2l30.6-63.7-1.7,57-15.7,32.8-6.8,14.2c-2.3,4.8-8,6.8-12.8,4.5l-3.5-1.7c-4.8-2.3-6.8-8-4.5-12.8l14.5-30.2Z"></path>
    <path class="st4" d="M197.6,270.1l-47.8,99.4c-5.5-5-11.7-9.9-18.5-14.9l45.4-94.5c2.3-4.8,8.1-6.8,12.8-4.5l3.5,1.7c4.8,2.3,6.8,8.1,4.5,12.8Z"></path>
    <path class="st1" d="M340,384.6s-53.1-5.8-90.4-43.4-90.4-43.4-90.4-43.4l28.3-58.8s63.2,14.6,90.4,43.4c38.8,41.1,90.4,43.4,90.4,43.4l-28.3,58.8Z"></path>
    <path class="st0" d="M368.2,325.8s-52.7-3.9-90.4-43.4c-30-31.6-90.4-43.4-90.4-43.4l28.3-58.8s60.8,14.8,90.4,43.4c37.5,36.3,90.4,43.4,90.4,43.4l-28.3,58.8Z"></path>
  </g>
</svg><style>@media (prefers-color-scheme: light) { :root { filter: none; } }
@media (prefers-color-scheme: dark) { :root { filter: none; } }
</style></svg>